<mxfile host="app.diagrams.net" modified="2022-02-27T15:00:41.049Z" agent="5.0 (Windows NT 10.0; Win64; x64) AppleWebKit/537.36 (KHTML, like Gecko) Chrome/98.0.4758.102 Safari/537.36" etag="EMdt4gbJys_PX3fo4LZA" version="16.6.2" type="github">
  <diagram id="8yW8SYwvI0MW3B-bR1rG" name="Page-1">
    <mxGraphModel dx="2049" dy="1489" grid="1" gridSize="10" guides="1" tooltips="1" connect="1" arrows="1" fold="1" page="1" pageScale="1" pageWidth="827" pageHeight="1169" math="0" shadow="0">
      <root>
        <mxCell id="0" />
        <mxCell id="1" parent="0" />
        <mxCell id="0En5r8Swxj0LR9ng2Lpo-81" value="&lt;font style=&quot;font-size: 13px&quot;&gt;&lt;b&gt;SSPD&lt;/b&gt;&lt;/font&gt;" style="rounded=1;whiteSpace=wrap;html=1;strokeColor=default;fillColor=none;dashed=1;align=right;verticalAlign=bottom;" vertex="1" parent="1">
          <mxGeometry x="-12.11" y="244" width="702.11" height="60" as="geometry" />
        </mxCell>
        <mxCell id="0En5r8Swxj0LR9ng2Lpo-12" value="" style="sketch=0;pointerEvents=1;shadow=0;dashed=0;html=1;strokeColor=none;fillColor=#505050;labelPosition=center;verticalLabelPosition=bottom;verticalAlign=top;outlineConnect=0;align=center;shape=mxgraph.office.concepts.app_part;" vertex="1" parent="1">
          <mxGeometry x="315" y="22" width="46" height="45" as="geometry" />
        </mxCell>
        <mxCell id="0En5r8Swxj0LR9ng2Lpo-13" value="&lt;span style=&quot;font-weight: 700;&quot;&gt;CodeID: 66606&lt;/span&gt;&lt;br style=&quot;font-weight: 700;&quot;&gt;&lt;span style=&quot;font-weight: 700;&quot;&gt;Name: Assembly A&lt;/span&gt;&lt;br style=&quot;font-weight: 700;&quot;&gt;&lt;span style=&quot;font-weight: 700;&quot;&gt;Version: A&lt;/span&gt;" style="text;html=1;strokeColor=none;fillColor=none;align=left;verticalAlign=middle;whiteSpace=wrap;rounded=0;" vertex="1" parent="1">
          <mxGeometry x="377" y="22" width="120" height="40" as="geometry" />
        </mxCell>
        <mxCell id="0En5r8Swxj0LR9ng2Lpo-14" value="" style="shape=image;html=1;verticalAlign=top;verticalLabelPosition=bottom;labelBackgroundColor=#ffffff;imageAspect=0;aspect=fixed;image=https://cdn2.iconfinder.com/data/icons/connectivity/32/setting_part_2-128.png" vertex="1" parent="1">
          <mxGeometry x="44" y="164" width="30" height="30" as="geometry" />
        </mxCell>
        <mxCell id="0En5r8Swxj0LR9ng2Lpo-15" value="&lt;span style=&quot;font-weight: 700&quot;&gt;CodeID: 66606.001&lt;/span&gt;&lt;br style=&quot;font-weight: 700&quot;&gt;&lt;span style=&quot;font-weight: 700&quot;&gt;Name: Part 1&lt;/span&gt;&lt;br style=&quot;font-weight: 700&quot;&gt;&lt;span style=&quot;font-weight: 700&quot;&gt;Version: A&lt;/span&gt;" style="text;html=1;strokeColor=none;fillColor=none;align=left;verticalAlign=middle;whiteSpace=wrap;rounded=0;" vertex="1" parent="1">
          <mxGeometry x="90" y="159" width="120" height="40" as="geometry" />
        </mxCell>
        <mxCell id="0En5r8Swxj0LR9ng2Lpo-16" value="" style="shape=image;html=1;verticalAlign=top;verticalLabelPosition=bottom;labelBackgroundColor=#ffffff;imageAspect=0;aspect=fixed;image=https://cdn2.iconfinder.com/data/icons/connectivity/32/setting_part_2-128.png" vertex="1" parent="1">
          <mxGeometry x="224" y="164" width="30" height="30" as="geometry" />
        </mxCell>
        <mxCell id="0En5r8Swxj0LR9ng2Lpo-17" value="&lt;span style=&quot;font-weight: 700&quot;&gt;CodeID: 66606.002&lt;/span&gt;&lt;br style=&quot;font-weight: 700&quot;&gt;&lt;span style=&quot;font-weight: 700&quot;&gt;Name: Part 2&lt;/span&gt;&lt;br style=&quot;font-weight: 700&quot;&gt;&lt;span style=&quot;font-weight: 700&quot;&gt;Version: B&lt;/span&gt;" style="text;html=1;strokeColor=none;fillColor=none;align=left;verticalAlign=middle;whiteSpace=wrap;rounded=0;" vertex="1" parent="1">
          <mxGeometry x="270" y="159" width="120" height="40" as="geometry" />
        </mxCell>
        <mxCell id="0En5r8Swxj0LR9ng2Lpo-18" value="" style="shape=image;html=1;verticalAlign=top;verticalLabelPosition=bottom;labelBackgroundColor=#ffffff;imageAspect=0;aspect=fixed;image=https://cdn2.iconfinder.com/data/icons/connectivity/32/setting_part_2-128.png" vertex="1" parent="1">
          <mxGeometry x="404" y="164" width="30" height="30" as="geometry" />
        </mxCell>
        <mxCell id="0En5r8Swxj0LR9ng2Lpo-19" value="&lt;span style=&quot;font-weight: 700&quot;&gt;CodeID: 66606.003&lt;/span&gt;&lt;br style=&quot;font-weight: 700&quot;&gt;&lt;span style=&quot;font-weight: 700&quot;&gt;Name: Part 3&lt;/span&gt;&lt;br style=&quot;font-weight: 700&quot;&gt;&lt;span style=&quot;font-weight: 700&quot;&gt;Version: A&lt;/span&gt;" style="text;html=1;strokeColor=none;fillColor=none;align=left;verticalAlign=middle;whiteSpace=wrap;rounded=0;" vertex="1" parent="1">
          <mxGeometry x="450" y="159" width="120" height="40" as="geometry" />
        </mxCell>
        <mxCell id="0En5r8Swxj0LR9ng2Lpo-20" value="" style="shape=image;html=1;verticalAlign=top;verticalLabelPosition=bottom;labelBackgroundColor=#ffffff;imageAspect=0;aspect=fixed;image=https://cdn2.iconfinder.com/data/icons/connectivity/32/setting_part_2-128.png" vertex="1" parent="1">
          <mxGeometry x="584" y="164" width="30" height="30" as="geometry" />
        </mxCell>
        <mxCell id="0En5r8Swxj0LR9ng2Lpo-21" value="&lt;span style=&quot;font-weight: 700&quot;&gt;CodeID: 66606.003&lt;/span&gt;&lt;br style=&quot;font-weight: 700&quot;&gt;&lt;span style=&quot;font-weight: 700&quot;&gt;Name: Part 4&lt;/span&gt;&lt;br style=&quot;font-weight: 700&quot;&gt;&lt;span style=&quot;font-weight: 700&quot;&gt;Version: B&lt;/span&gt;" style="text;html=1;strokeColor=none;fillColor=none;align=left;verticalAlign=middle;whiteSpace=wrap;rounded=0;" vertex="1" parent="1">
          <mxGeometry x="630" y="159" width="120" height="40" as="geometry" />
        </mxCell>
        <mxCell id="0En5r8Swxj0LR9ng2Lpo-22" value="" style="endArrow=none;html=1;rounded=0;entryX=0.5;entryY=0;entryDx=0;entryDy=0;endFill=0;" edge="1" parent="1" source="0En5r8Swxj0LR9ng2Lpo-12" target="0En5r8Swxj0LR9ng2Lpo-14">
          <mxGeometry width="50" height="50" relative="1" as="geometry">
            <mxPoint x="400" y="335" as="sourcePoint" />
            <mxPoint x="450" y="285" as="targetPoint" />
          </mxGeometry>
        </mxCell>
        <mxCell id="0En5r8Swxj0LR9ng2Lpo-23" value="" style="endArrow=none;html=1;rounded=0;entryX=0.5;entryY=0;entryDx=0;entryDy=0;endFill=0;" edge="1" parent="1" source="0En5r8Swxj0LR9ng2Lpo-12" target="0En5r8Swxj0LR9ng2Lpo-16">
          <mxGeometry width="50" height="50" relative="1" as="geometry">
            <mxPoint x="300" y="89.95078740157476" as="sourcePoint" />
            <mxPoint x="69" y="215" as="targetPoint" />
          </mxGeometry>
        </mxCell>
        <mxCell id="0En5r8Swxj0LR9ng2Lpo-24" value="" style="endArrow=none;html=1;rounded=0;entryX=0.5;entryY=0;entryDx=0;entryDy=0;endFill=0;" edge="1" parent="1" source="0En5r8Swxj0LR9ng2Lpo-12" target="0En5r8Swxj0LR9ng2Lpo-18">
          <mxGeometry width="50" height="50" relative="1" as="geometry">
            <mxPoint x="320" y="85" as="sourcePoint" />
            <mxPoint x="249" y="215" as="targetPoint" />
          </mxGeometry>
        </mxCell>
        <mxCell id="0En5r8Swxj0LR9ng2Lpo-25" value="" style="endArrow=none;html=1;rounded=0;entryX=0.5;entryY=0;entryDx=0;entryDy=0;endFill=0;" edge="1" parent="1" source="0En5r8Swxj0LR9ng2Lpo-12" target="0En5r8Swxj0LR9ng2Lpo-20">
          <mxGeometry width="50" height="50" relative="1" as="geometry">
            <mxPoint x="340.34545454545446" y="100" as="sourcePoint" />
            <mxPoint x="429" y="215" as="targetPoint" />
          </mxGeometry>
        </mxCell>
        <mxCell id="0En5r8Swxj0LR9ng2Lpo-37" value="" style="verticalLabelPosition=bottom;sketch=0;html=1;fillColor=#99CCFF;verticalAlign=top;align=center;pointerEvents=1;shape=mxgraph.cisco_safe.design.actuator;" vertex="1" parent="1">
          <mxGeometry x="239" y="264" width="22.22" height="20" as="geometry" />
        </mxCell>
        <mxCell id="0En5r8Swxj0LR9ng2Lpo-38" value="" style="verticalLabelPosition=bottom;sketch=0;html=1;fillColor=#9AC7BF;strokeColor=#ffffff;verticalAlign=top;align=center;points=[[0,0.5,0],[0.125,0.25,0],[0.25,0,0],[0.5,0,0],[0.75,0,0],[0.875,0.25,0],[1,0.5,0],[0.875,0.75,0],[0.75,1,0],[0.5,1,0],[0.125,0.75,0]];pointerEvents=1;shape=mxgraph.cisco_safe.compositeIcon;bgIcon=mxgraph.cisco_safe.design.blank_device;resIcon=mxgraph.cisco_safe.design.automated_system;" vertex="1" parent="1">
          <mxGeometry x="194.56" y="264" width="22.22" height="20" as="geometry" />
        </mxCell>
        <mxCell id="0En5r8Swxj0LR9ng2Lpo-39" value="" style="verticalLabelPosition=bottom;sketch=0;html=1;fillColor=#CDA2BE;strokeColor=#ffffff;verticalAlign=top;align=center;points=[[0,0.5,0],[0.125,0.25,0],[0.25,0,0],[0.5,0,0],[0.75,0,0],[0.875,0.25,0],[1,0.5,0],[0.875,0.75,0],[0.75,1,0],[0.5,1,0],[0.125,0.75,0]];pointerEvents=1;shape=mxgraph.cisco_safe.compositeIcon;bgIcon=mxgraph.cisco_safe.design.blank_device;resIcon=mxgraph.cisco_safe.design.flow_collector_2;" vertex="1" parent="1">
          <mxGeometry x="216.77999999999997" y="264" width="22.22" height="20" as="geometry" />
        </mxCell>
        <mxCell id="0En5r8Swxj0LR9ng2Lpo-40" value="" style="verticalLabelPosition=bottom;sketch=0;html=1;fillColor=#B7C2D4;strokeColor=#ffffff;verticalAlign=top;align=center;points=[[0,0.5,0],[0.125,0.25,0],[0.25,0,0],[0.5,0,0],[0.75,0,0],[0.875,0.25,0],[1,0.5,0],[0.875,0.75,0],[0.75,1,0],[0.5,1,0],[0.125,0.75,0]];pointerEvents=1;shape=mxgraph.cisco_safe.compositeIcon;bgIcon=mxgraph.cisco_safe.design.blank_device;resIcon=mxgraph.cisco_safe.design.radware_2;" vertex="1" parent="1">
          <mxGeometry x="261.21999999999997" y="264" width="22.23" height="20" as="geometry" />
        </mxCell>
        <mxCell id="0En5r8Swxj0LR9ng2Lpo-49" value="" style="verticalLabelPosition=bottom;sketch=0;html=1;fillColor=#99CCFF;verticalAlign=top;align=center;pointerEvents=1;shape=mxgraph.cisco_safe.design.actuator;" vertex="1" parent="1">
          <mxGeometry x="59" y="264" width="22.22" height="20" as="geometry" />
        </mxCell>
        <mxCell id="0En5r8Swxj0LR9ng2Lpo-50" value="" style="verticalLabelPosition=bottom;sketch=0;html=1;fillColor=#9AC7BF;strokeColor=#ffffff;verticalAlign=top;align=center;points=[[0,0.5,0],[0.125,0.25,0],[0.25,0,0],[0.5,0,0],[0.75,0,0],[0.875,0.25,0],[1,0.5,0],[0.875,0.75,0],[0.75,1,0],[0.5,1,0],[0.125,0.75,0]];pointerEvents=1;shape=mxgraph.cisco_safe.compositeIcon;bgIcon=mxgraph.cisco_safe.design.blank_device;resIcon=mxgraph.cisco_safe.design.automated_system;" vertex="1" parent="1">
          <mxGeometry x="14.560000000000002" y="264" width="22.22" height="20" as="geometry" />
        </mxCell>
        <mxCell id="0En5r8Swxj0LR9ng2Lpo-51" value="" style="verticalLabelPosition=bottom;sketch=0;html=1;fillColor=#CDA2BE;strokeColor=#ffffff;verticalAlign=top;align=center;points=[[0,0.5,0],[0.125,0.25,0],[0.25,0,0],[0.5,0,0],[0.75,0,0],[0.875,0.25,0],[1,0.5,0],[0.875,0.75,0],[0.75,1,0],[0.5,1,0],[0.125,0.75,0]];pointerEvents=1;shape=mxgraph.cisco_safe.compositeIcon;bgIcon=mxgraph.cisco_safe.design.blank_device;resIcon=mxgraph.cisco_safe.design.flow_collector_2;" vertex="1" parent="1">
          <mxGeometry x="36.77999999999997" y="264" width="22.22" height="20" as="geometry" />
        </mxCell>
        <mxCell id="0En5r8Swxj0LR9ng2Lpo-52" value="" style="verticalLabelPosition=bottom;sketch=0;html=1;fillColor=#B7C2D4;strokeColor=#ffffff;verticalAlign=top;align=center;points=[[0,0.5,0],[0.125,0.25,0],[0.25,0,0],[0.5,0,0],[0.75,0,0],[0.875,0.25,0],[1,0.5,0],[0.875,0.75,0],[0.75,1,0],[0.5,1,0],[0.125,0.75,0]];pointerEvents=1;shape=mxgraph.cisco_safe.compositeIcon;bgIcon=mxgraph.cisco_safe.design.blank_device;resIcon=mxgraph.cisco_safe.design.radware_2;" vertex="1" parent="1">
          <mxGeometry x="81.21999999999997" y="264" width="22.23" height="20" as="geometry" />
        </mxCell>
        <mxCell id="0En5r8Swxj0LR9ng2Lpo-57" value="" style="verticalLabelPosition=bottom;sketch=0;html=1;fillColor=#99CCFF;verticalAlign=top;align=center;pointerEvents=1;shape=mxgraph.cisco_safe.design.actuator;" vertex="1" parent="1">
          <mxGeometry x="418.99000000000007" y="264" width="22.22" height="20" as="geometry" />
        </mxCell>
        <mxCell id="0En5r8Swxj0LR9ng2Lpo-58" value="" style="verticalLabelPosition=bottom;sketch=0;html=1;fillColor=#9AC7BF;strokeColor=#ffffff;verticalAlign=top;align=center;points=[[0,0.5,0],[0.125,0.25,0],[0.25,0,0],[0.5,0,0],[0.75,0,0],[0.875,0.25,0],[1,0.5,0],[0.875,0.75,0],[0.75,1,0],[0.5,1,0],[0.125,0.75,0]];pointerEvents=1;shape=mxgraph.cisco_safe.compositeIcon;bgIcon=mxgraph.cisco_safe.design.blank_device;resIcon=mxgraph.cisco_safe.design.automated_system;" vertex="1" parent="1">
          <mxGeometry x="374.55000000000007" y="264" width="22.22" height="20" as="geometry" />
        </mxCell>
        <mxCell id="0En5r8Swxj0LR9ng2Lpo-59" value="" style="verticalLabelPosition=bottom;sketch=0;html=1;fillColor=#CDA2BE;strokeColor=#ffffff;verticalAlign=top;align=center;points=[[0,0.5,0],[0.125,0.25,0],[0.25,0,0],[0.5,0,0],[0.75,0,0],[0.875,0.25,0],[1,0.5,0],[0.875,0.75,0],[0.75,1,0],[0.5,1,0],[0.125,0.75,0]];pointerEvents=1;shape=mxgraph.cisco_safe.compositeIcon;bgIcon=mxgraph.cisco_safe.design.blank_device;resIcon=mxgraph.cisco_safe.design.flow_collector_2;" vertex="1" parent="1">
          <mxGeometry x="396.77000000000004" y="264" width="22.22" height="20" as="geometry" />
        </mxCell>
        <mxCell id="0En5r8Swxj0LR9ng2Lpo-60" value="" style="verticalLabelPosition=bottom;sketch=0;html=1;fillColor=#B7C2D4;strokeColor=#ffffff;verticalAlign=top;align=center;points=[[0,0.5,0],[0.125,0.25,0],[0.25,0,0],[0.5,0,0],[0.75,0,0],[0.875,0.25,0],[1,0.5,0],[0.875,0.75,0],[0.75,1,0],[0.5,1,0],[0.125,0.75,0]];pointerEvents=1;shape=mxgraph.cisco_safe.compositeIcon;bgIcon=mxgraph.cisco_safe.design.blank_device;resIcon=mxgraph.cisco_safe.design.radware_2;" vertex="1" parent="1">
          <mxGeometry x="441.21000000000004" y="264" width="22.23" height="20" as="geometry" />
        </mxCell>
        <mxCell id="0En5r8Swxj0LR9ng2Lpo-61" value="" style="verticalLabelPosition=bottom;sketch=0;html=1;fillColor=#99CCFF;verticalAlign=top;align=center;pointerEvents=1;shape=mxgraph.cisco_safe.design.actuator;" vertex="1" parent="1">
          <mxGeometry x="598.99" y="264" width="22.22" height="20" as="geometry" />
        </mxCell>
        <mxCell id="0En5r8Swxj0LR9ng2Lpo-62" value="" style="verticalLabelPosition=bottom;sketch=0;html=1;fillColor=#9AC7BF;strokeColor=#ffffff;verticalAlign=top;align=center;points=[[0,0.5,0],[0.125,0.25,0],[0.25,0,0],[0.5,0,0],[0.75,0,0],[0.875,0.25,0],[1,0.5,0],[0.875,0.75,0],[0.75,1,0],[0.5,1,0],[0.125,0.75,0]];pointerEvents=1;shape=mxgraph.cisco_safe.compositeIcon;bgIcon=mxgraph.cisco_safe.design.blank_device;resIcon=mxgraph.cisco_safe.design.automated_system;" vertex="1" parent="1">
          <mxGeometry x="554.5500000000001" y="264" width="22.22" height="20" as="geometry" />
        </mxCell>
        <mxCell id="0En5r8Swxj0LR9ng2Lpo-63" value="" style="verticalLabelPosition=bottom;sketch=0;html=1;fillColor=#CDA2BE;strokeColor=#ffffff;verticalAlign=top;align=center;points=[[0,0.5,0],[0.125,0.25,0],[0.25,0,0],[0.5,0,0],[0.75,0,0],[0.875,0.25,0],[1,0.5,0],[0.875,0.75,0],[0.75,1,0],[0.5,1,0],[0.125,0.75,0]];pointerEvents=1;shape=mxgraph.cisco_safe.compositeIcon;bgIcon=mxgraph.cisco_safe.design.blank_device;resIcon=mxgraph.cisco_safe.design.flow_collector_2;" vertex="1" parent="1">
          <mxGeometry x="576.77" y="264" width="22.22" height="20" as="geometry" />
        </mxCell>
        <mxCell id="0En5r8Swxj0LR9ng2Lpo-64" value="" style="verticalLabelPosition=bottom;sketch=0;html=1;fillColor=#B7C2D4;strokeColor=#ffffff;verticalAlign=top;align=center;points=[[0,0.5,0],[0.125,0.25,0],[0.25,0,0],[0.5,0,0],[0.75,0,0],[0.875,0.25,0],[1,0.5,0],[0.875,0.75,0],[0.75,1,0],[0.5,1,0],[0.125,0.75,0]];pointerEvents=1;shape=mxgraph.cisco_safe.compositeIcon;bgIcon=mxgraph.cisco_safe.design.blank_device;resIcon=mxgraph.cisco_safe.design.radware_2;" vertex="1" parent="1">
          <mxGeometry x="621.21" y="264" width="22.23" height="20" as="geometry" />
        </mxCell>
        <mxCell id="0En5r8Swxj0LR9ng2Lpo-65" value="" style="endArrow=none;html=1;rounded=0;entryX=0.5;entryY=0;entryDx=0;entryDy=0;entryPerimeter=0;dashed=1;" edge="1" parent="1" source="0En5r8Swxj0LR9ng2Lpo-14" target="0En5r8Swxj0LR9ng2Lpo-50">
          <mxGeometry width="50" height="50" relative="1" as="geometry">
            <mxPoint x="50" y="205" as="sourcePoint" />
            <mxPoint x="400" y="75" as="targetPoint" />
          </mxGeometry>
        </mxCell>
        <mxCell id="0En5r8Swxj0LR9ng2Lpo-66" value="" style="endArrow=none;html=1;rounded=0;entryX=0.5;entryY=0;entryDx=0;entryDy=0;entryPerimeter=0;dashed=1;" edge="1" parent="1" source="0En5r8Swxj0LR9ng2Lpo-14" target="0En5r8Swxj0LR9ng2Lpo-51">
          <mxGeometry width="50" height="50" relative="1" as="geometry">
            <mxPoint x="60" y="215" as="sourcePoint" />
            <mxPoint x="35.669999999999845" y="285" as="targetPoint" />
          </mxGeometry>
        </mxCell>
        <mxCell id="0En5r8Swxj0LR9ng2Lpo-67" value="" style="endArrow=none;html=1;rounded=0;dashed=1;exitX=0.5;exitY=1;exitDx=0;exitDy=0;" edge="1" parent="1" source="0En5r8Swxj0LR9ng2Lpo-14" target="0En5r8Swxj0LR9ng2Lpo-49">
          <mxGeometry width="50" height="50" relative="1" as="geometry">
            <mxPoint x="66.94259259259258" y="219" as="sourcePoint" />
            <mxPoint x="57.889999999999986" y="285" as="targetPoint" />
          </mxGeometry>
        </mxCell>
        <mxCell id="0En5r8Swxj0LR9ng2Lpo-68" value="" style="endArrow=none;html=1;rounded=0;dashed=1;exitX=0.75;exitY=1;exitDx=0;exitDy=0;entryX=0.5;entryY=0;entryDx=0;entryDy=0;entryPerimeter=0;" edge="1" parent="1" source="0En5r8Swxj0LR9ng2Lpo-14" target="0En5r8Swxj0LR9ng2Lpo-52">
          <mxGeometry width="50" height="50" relative="1" as="geometry">
            <mxPoint x="76.5" y="219" as="sourcePoint" />
            <mxPoint x="79.63499999999999" y="285" as="targetPoint" />
          </mxGeometry>
        </mxCell>
        <mxCell id="0En5r8Swxj0LR9ng2Lpo-69" value="" style="endArrow=none;html=1;rounded=0;entryX=0.5;entryY=0;entryDx=0;entryDy=0;entryPerimeter=0;dashed=1;exitX=0.25;exitY=1;exitDx=0;exitDy=0;" edge="1" parent="1" source="0En5r8Swxj0LR9ng2Lpo-16" target="0En5r8Swxj0LR9ng2Lpo-38">
          <mxGeometry width="50" height="50" relative="1" as="geometry">
            <mxPoint x="232.82777777777773" y="209" as="sourcePoint" />
            <mxPoint x="205.67000000000002" y="275" as="targetPoint" />
          </mxGeometry>
        </mxCell>
        <mxCell id="0En5r8Swxj0LR9ng2Lpo-70" value="" style="endArrow=none;html=1;rounded=0;entryX=0.5;entryY=0;entryDx=0;entryDy=0;entryPerimeter=0;dashed=1;exitX=0.5;exitY=1;exitDx=0;exitDy=0;" edge="1" parent="1" source="0En5r8Swxj0LR9ng2Lpo-16" target="0En5r8Swxj0LR9ng2Lpo-39">
          <mxGeometry width="50" height="50" relative="1" as="geometry">
            <mxPoint x="236.94259259259258" y="209" as="sourcePoint" />
            <mxPoint x="227.89" y="275" as="targetPoint" />
          </mxGeometry>
        </mxCell>
        <mxCell id="0En5r8Swxj0LR9ng2Lpo-71" value="" style="endArrow=none;html=1;rounded=0;dashed=1;entryX=0.504;entryY=0.078;entryDx=0;entryDy=0;entryPerimeter=0;" edge="1" parent="1" target="0En5r8Swxj0LR9ng2Lpo-37">
          <mxGeometry width="50" height="50" relative="1" as="geometry">
            <mxPoint x="240" y="190" as="sourcePoint" />
            <mxPoint x="250" y="260" as="targetPoint" />
          </mxGeometry>
        </mxCell>
        <mxCell id="0En5r8Swxj0LR9ng2Lpo-72" value="" style="endArrow=none;html=1;rounded=0;dashed=1;exitX=0.75;exitY=1;exitDx=0;exitDy=0;entryX=0.5;entryY=0;entryDx=0;entryDy=0;entryPerimeter=0;" edge="1" parent="1" source="0En5r8Swxj0LR9ng2Lpo-16" target="0En5r8Swxj0LR9ng2Lpo-40">
          <mxGeometry width="50" height="50" relative="1" as="geometry">
            <mxPoint x="246.5" y="209" as="sourcePoint" />
            <mxPoint x="272.335" y="275" as="targetPoint" />
          </mxGeometry>
        </mxCell>
        <mxCell id="0En5r8Swxj0LR9ng2Lpo-73" value="" style="endArrow=none;html=1;rounded=0;entryX=0.5;entryY=0;entryDx=0;entryDy=0;entryPerimeter=0;dashed=1;exitX=0.25;exitY=1;exitDx=0;exitDy=0;" edge="1" parent="1" source="0En5r8Swxj0LR9ng2Lpo-18" target="0En5r8Swxj0LR9ng2Lpo-58">
          <mxGeometry width="50" height="50" relative="1" as="geometry">
            <mxPoint x="412.8277777777778" y="209" as="sourcePoint" />
            <mxPoint x="385.6700000000001" y="275" as="targetPoint" />
          </mxGeometry>
        </mxCell>
        <mxCell id="0En5r8Swxj0LR9ng2Lpo-74" value="" style="endArrow=none;html=1;rounded=0;entryX=0.5;entryY=0;entryDx=0;entryDy=0;entryPerimeter=0;dashed=1;exitX=0.5;exitY=1;exitDx=0;exitDy=0;" edge="1" parent="1" source="0En5r8Swxj0LR9ng2Lpo-18" target="0En5r8Swxj0LR9ng2Lpo-59">
          <mxGeometry width="50" height="50" relative="1" as="geometry">
            <mxPoint x="416.9425925925925" y="209" as="sourcePoint" />
            <mxPoint x="407.89" y="275" as="targetPoint" />
          </mxGeometry>
        </mxCell>
        <mxCell id="0En5r8Swxj0LR9ng2Lpo-75" value="" style="endArrow=none;html=1;rounded=0;dashed=1;exitX=0.5;exitY=1;exitDx=0;exitDy=0;entryX=0.438;entryY=0.061;entryDx=0;entryDy=0;entryPerimeter=0;" edge="1" parent="1" source="0En5r8Swxj0LR9ng2Lpo-18" target="0En5r8Swxj0LR9ng2Lpo-57">
          <mxGeometry width="50" height="50" relative="1" as="geometry">
            <mxPoint x="419" y="209" as="sourcePoint" />
            <mxPoint x="428.64815789473687" y="275" as="targetPoint" />
          </mxGeometry>
        </mxCell>
        <mxCell id="0En5r8Swxj0LR9ng2Lpo-76" value="" style="endArrow=none;html=1;rounded=0;dashed=1;exitX=0.75;exitY=1;exitDx=0;exitDy=0;entryX=0.5;entryY=0;entryDx=0;entryDy=0;entryPerimeter=0;" edge="1" parent="1" source="0En5r8Swxj0LR9ng2Lpo-18" target="0En5r8Swxj0LR9ng2Lpo-60">
          <mxGeometry width="50" height="50" relative="1" as="geometry">
            <mxPoint x="426.5" y="209" as="sourcePoint" />
            <mxPoint x="452.33500000000004" y="275" as="targetPoint" />
          </mxGeometry>
        </mxCell>
        <mxCell id="0En5r8Swxj0LR9ng2Lpo-77" value="" style="endArrow=none;html=1;rounded=0;entryX=0.5;entryY=0;entryDx=0;entryDy=0;entryPerimeter=0;dashed=1;exitX=0.25;exitY=1;exitDx=0;exitDy=0;" edge="1" parent="1" source="0En5r8Swxj0LR9ng2Lpo-20" target="0En5r8Swxj0LR9ng2Lpo-62">
          <mxGeometry width="50" height="50" relative="1" as="geometry">
            <mxPoint x="592.8277777777778" y="209" as="sourcePoint" />
            <mxPoint x="565.6700000000001" y="275" as="targetPoint" />
          </mxGeometry>
        </mxCell>
        <mxCell id="0En5r8Swxj0LR9ng2Lpo-78" value="" style="endArrow=none;html=1;rounded=0;entryX=0.5;entryY=0;entryDx=0;entryDy=0;entryPerimeter=0;dashed=1;exitX=0.5;exitY=1;exitDx=0;exitDy=0;" edge="1" parent="1" source="0En5r8Swxj0LR9ng2Lpo-20" target="0En5r8Swxj0LR9ng2Lpo-63">
          <mxGeometry width="50" height="50" relative="1" as="geometry">
            <mxPoint x="596.9425925925925" y="209" as="sourcePoint" />
            <mxPoint x="587.89" y="275" as="targetPoint" />
          </mxGeometry>
        </mxCell>
        <mxCell id="0En5r8Swxj0LR9ng2Lpo-79" value="" style="endArrow=none;html=1;rounded=0;dashed=1;exitX=0.5;exitY=1;exitDx=0;exitDy=0;entryX=0.445;entryY=0.065;entryDx=0;entryDy=0;entryPerimeter=0;" edge="1" parent="1" source="0En5r8Swxj0LR9ng2Lpo-20" target="0En5r8Swxj0LR9ng2Lpo-61">
          <mxGeometry width="50" height="50" relative="1" as="geometry">
            <mxPoint x="599" y="209" as="sourcePoint" />
            <mxPoint x="608.6481578947369" y="275" as="targetPoint" />
          </mxGeometry>
        </mxCell>
        <mxCell id="0En5r8Swxj0LR9ng2Lpo-80" value="" style="endArrow=none;html=1;rounded=0;dashed=1;exitX=0.75;exitY=1;exitDx=0;exitDy=0;entryX=0.5;entryY=0;entryDx=0;entryDy=0;entryPerimeter=0;" edge="1" parent="1" source="0En5r8Swxj0LR9ng2Lpo-20" target="0En5r8Swxj0LR9ng2Lpo-64">
          <mxGeometry width="50" height="50" relative="1" as="geometry">
            <mxPoint x="606.5" y="209" as="sourcePoint" />
            <mxPoint x="632.335" y="275" as="targetPoint" />
          </mxGeometry>
        </mxCell>
        <mxCell id="0En5r8Swxj0LR9ng2Lpo-82" value="Engineering BOM&lt;br&gt;View" style="rounded=1;whiteSpace=wrap;html=1;strokeColor=#67AB9F;fillColor=#9AC7BF;" vertex="1" parent="1">
          <mxGeometry y="375" width="120" height="60" as="geometry" />
        </mxCell>
        <mxCell id="0En5r8Swxj0LR9ng2Lpo-83" value="Process BOM&lt;br&gt;View" style="rounded=1;whiteSpace=wrap;html=1;strokeColor=#B5739D;fillColor=#CDA2BE;" vertex="1" parent="1">
          <mxGeometry x="179" y="375" width="120" height="60" as="geometry" />
        </mxCell>
        <mxCell id="0En5r8Swxj0LR9ng2Lpo-84" value="Manufacturing BOM&lt;br&gt;View" style="rounded=1;whiteSpace=wrap;html=1;strokeColor=#7EA6E0;fillColor=#99CCFF;" vertex="1" parent="1">
          <mxGeometry x="359" y="375" width="120" height="60" as="geometry" />
        </mxCell>
        <mxCell id="0En5r8Swxj0LR9ng2Lpo-85" value="X BOM&lt;br&gt;View" style="rounded=1;whiteSpace=wrap;html=1;strokeColor=#A1ACBA;fillColor=#B7C2D4;" vertex="1" parent="1">
          <mxGeometry x="539" y="375" width="120" height="60" as="geometry" />
        </mxCell>
        <mxCell id="0En5r8Swxj0LR9ng2Lpo-86" value="" style="endArrow=none;html=1;rounded=0;entryX=0.5;entryY=1;entryDx=0;entryDy=0;entryPerimeter=0;dashed=1;exitX=0.5;exitY=0;exitDx=0;exitDy=0;" edge="1" parent="1" source="0En5r8Swxj0LR9ng2Lpo-82" target="0En5r8Swxj0LR9ng2Lpo-50">
          <mxGeometry width="50" height="50" relative="1" as="geometry">
            <mxPoint x="62.82777777777778" y="219" as="sourcePoint" />
            <mxPoint x="35.67000000000007" y="285" as="targetPoint" />
          </mxGeometry>
        </mxCell>
        <mxCell id="0En5r8Swxj0LR9ng2Lpo-91" value="" style="endArrow=none;html=1;rounded=0;entryX=0.5;entryY=1;entryDx=0;entryDy=0;entryPerimeter=0;dashed=1;exitX=0.5;exitY=0;exitDx=0;exitDy=0;" edge="1" parent="1" source="0En5r8Swxj0LR9ng2Lpo-82" target="0En5r8Swxj0LR9ng2Lpo-38">
          <mxGeometry width="50" height="50" relative="1" as="geometry">
            <mxPoint x="70" y="384.9999999999998" as="sourcePoint" />
            <mxPoint x="35.67000000000007" y="305.0000000000002" as="targetPoint" />
          </mxGeometry>
        </mxCell>
        <mxCell id="0En5r8Swxj0LR9ng2Lpo-92" value="" style="endArrow=none;html=1;rounded=0;entryX=0.5;entryY=1;entryDx=0;entryDy=0;entryPerimeter=0;dashed=1;exitX=0.5;exitY=0;exitDx=0;exitDy=0;" edge="1" parent="1" source="0En5r8Swxj0LR9ng2Lpo-82" target="0En5r8Swxj0LR9ng2Lpo-58">
          <mxGeometry width="50" height="50" relative="1" as="geometry">
            <mxPoint x="70" y="385" as="sourcePoint" />
            <mxPoint x="57.8900000000001" y="305" as="targetPoint" />
          </mxGeometry>
        </mxCell>
        <mxCell id="0En5r8Swxj0LR9ng2Lpo-93" value="" style="endArrow=none;html=1;rounded=0;dashed=1;exitX=0.5;exitY=0;exitDx=0;exitDy=0;" edge="1" parent="1" source="0En5r8Swxj0LR9ng2Lpo-82" target="0En5r8Swxj0LR9ng2Lpo-62">
          <mxGeometry width="50" height="50" relative="1" as="geometry">
            <mxPoint x="70" y="385" as="sourcePoint" />
            <mxPoint x="79.66560000000004" y="304.8399999999999" as="targetPoint" />
          </mxGeometry>
        </mxCell>
        <mxCell id="0En5r8Swxj0LR9ng2Lpo-94" value="" style="endArrow=none;html=1;rounded=0;entryX=0.5;entryY=1;entryDx=0;entryDy=0;entryPerimeter=0;dashed=1;exitX=0.5;exitY=0;exitDx=0;exitDy=0;" edge="1" parent="1" source="0En5r8Swxj0LR9ng2Lpo-83" target="0En5r8Swxj0LR9ng2Lpo-51">
          <mxGeometry width="50" height="50" relative="1" as="geometry">
            <mxPoint x="70" y="385" as="sourcePoint" />
            <mxPoint x="35.67000000000007" y="305" as="targetPoint" />
          </mxGeometry>
        </mxCell>
        <mxCell id="0En5r8Swxj0LR9ng2Lpo-95" value="" style="endArrow=none;html=1;rounded=0;entryX=0.5;entryY=1;entryDx=0;entryDy=0;entryPerimeter=0;dashed=1;exitX=0.5;exitY=0;exitDx=0;exitDy=0;" edge="1" parent="1" source="0En5r8Swxj0LR9ng2Lpo-83" target="0En5r8Swxj0LR9ng2Lpo-39">
          <mxGeometry width="50" height="50" relative="1" as="geometry">
            <mxPoint x="248.99999999999977" y="385" as="sourcePoint" />
            <mxPoint x="57.8900000000001" y="305" as="targetPoint" />
          </mxGeometry>
        </mxCell>
        <mxCell id="0En5r8Swxj0LR9ng2Lpo-96" value="" style="endArrow=none;html=1;rounded=0;entryX=0.5;entryY=1;entryDx=0;entryDy=0;entryPerimeter=0;dashed=1;exitX=0.5;exitY=0;exitDx=0;exitDy=0;" edge="1" parent="1" source="0En5r8Swxj0LR9ng2Lpo-83" target="0En5r8Swxj0LR9ng2Lpo-59">
          <mxGeometry width="50" height="50" relative="1" as="geometry">
            <mxPoint x="249" y="385" as="sourcePoint" />
            <mxPoint x="237.88999999999987" y="305" as="targetPoint" />
          </mxGeometry>
        </mxCell>
        <mxCell id="0En5r8Swxj0LR9ng2Lpo-97" value="" style="endArrow=none;html=1;rounded=0;entryX=0.5;entryY=1;entryDx=0;entryDy=0;entryPerimeter=0;dashed=1;exitX=0.5;exitY=0;exitDx=0;exitDy=0;" edge="1" parent="1" source="0En5r8Swxj0LR9ng2Lpo-83" target="0En5r8Swxj0LR9ng2Lpo-63">
          <mxGeometry width="50" height="50" relative="1" as="geometry">
            <mxPoint x="249" y="385" as="sourcePoint" />
            <mxPoint x="417.8799999999999" y="305" as="targetPoint" />
          </mxGeometry>
        </mxCell>
        <mxCell id="0En5r8Swxj0LR9ng2Lpo-98" value="" style="endArrow=none;html=1;rounded=0;entryX=0.541;entryY=1.125;entryDx=0;entryDy=0;entryPerimeter=0;dashed=1;exitX=0.5;exitY=0;exitDx=0;exitDy=0;" edge="1" parent="1" source="0En5r8Swxj0LR9ng2Lpo-84" target="0En5r8Swxj0LR9ng2Lpo-61">
          <mxGeometry width="50" height="50" relative="1" as="geometry">
            <mxPoint x="249" y="385" as="sourcePoint" />
            <mxPoint x="597.8799999999999" y="305" as="targetPoint" />
          </mxGeometry>
        </mxCell>
        <mxCell id="0En5r8Swxj0LR9ng2Lpo-99" value="" style="endArrow=none;html=1;rounded=0;entryX=0.51;entryY=1.125;entryDx=0;entryDy=0;entryPerimeter=0;dashed=1;" edge="1" parent="1" target="0En5r8Swxj0LR9ng2Lpo-57">
          <mxGeometry width="50" height="50" relative="1" as="geometry">
            <mxPoint x="420" y="375" as="sourcePoint" />
            <mxPoint x="621.0110200000001" y="307.5" as="targetPoint" />
          </mxGeometry>
        </mxCell>
        <mxCell id="0En5r8Swxj0LR9ng2Lpo-100" value="" style="endArrow=none;html=1;rounded=0;entryX=0.42;entryY=1.025;entryDx=0;entryDy=0;entryPerimeter=0;dashed=1;" edge="1" parent="1" target="0En5r8Swxj0LR9ng2Lpo-37">
          <mxGeometry width="50" height="50" relative="1" as="geometry">
            <mxPoint x="420" y="375" as="sourcePoint" />
            <mxPoint x="440.3222000000003" y="307.5" as="targetPoint" />
          </mxGeometry>
        </mxCell>
        <mxCell id="0En5r8Swxj0LR9ng2Lpo-101" value="" style="endArrow=none;html=1;rounded=0;entryX=0.51;entryY=1.025;entryDx=0;entryDy=0;entryPerimeter=0;dashed=1;" edge="1" parent="1" target="0En5r8Swxj0LR9ng2Lpo-49">
          <mxGeometry width="50" height="50" relative="1" as="geometry">
            <mxPoint x="420" y="375" as="sourcePoint" />
            <mxPoint x="258.3323999999998" y="305.4999999999999" as="targetPoint" />
          </mxGeometry>
        </mxCell>
        <mxCell id="0En5r8Swxj0LR9ng2Lpo-102" value="" style="endArrow=none;html=1;rounded=0;entryX=0.5;entryY=1;entryDx=0;entryDy=0;entryPerimeter=0;dashed=1;exitX=0.5;exitY=0;exitDx=0;exitDy=0;" edge="1" parent="1" source="0En5r8Swxj0LR9ng2Lpo-85" target="0En5r8Swxj0LR9ng2Lpo-64">
          <mxGeometry width="50" height="50" relative="1" as="geometry">
            <mxPoint x="429" y="384.9999999999998" as="sourcePoint" />
            <mxPoint x="621.0110199999999" y="307.5000000000002" as="targetPoint" />
          </mxGeometry>
        </mxCell>
        <mxCell id="0En5r8Swxj0LR9ng2Lpo-103" value="" style="endArrow=none;html=1;rounded=0;entryX=0.5;entryY=1;entryDx=0;entryDy=0;entryPerimeter=0;dashed=1;" edge="1" parent="1" target="0En5r8Swxj0LR9ng2Lpo-60">
          <mxGeometry width="50" height="50" relative="1" as="geometry">
            <mxPoint x="600" y="375" as="sourcePoint" />
            <mxPoint x="642.3250000000003" y="305.0000000000002" as="targetPoint" />
          </mxGeometry>
        </mxCell>
        <mxCell id="0En5r8Swxj0LR9ng2Lpo-105" value="" style="endArrow=none;html=1;rounded=0;entryX=0.5;entryY=1;entryDx=0;entryDy=0;entryPerimeter=0;dashed=1;" edge="1" parent="1" target="0En5r8Swxj0LR9ng2Lpo-40">
          <mxGeometry width="50" height="50" relative="1" as="geometry">
            <mxPoint x="600" y="375" as="sourcePoint" />
            <mxPoint x="462.3250000000003" y="305.0000000000002" as="targetPoint" />
          </mxGeometry>
        </mxCell>
        <mxCell id="0En5r8Swxj0LR9ng2Lpo-106" value="" style="endArrow=none;html=1;rounded=0;entryX=0.5;entryY=1;entryDx=0;entryDy=0;entryPerimeter=0;dashed=1;" edge="1" parent="1" target="0En5r8Swxj0LR9ng2Lpo-52">
          <mxGeometry width="50" height="50" relative="1" as="geometry">
            <mxPoint x="600" y="375" as="sourcePoint" />
            <mxPoint x="282.33500000000004" y="305.0000000000002" as="targetPoint" />
          </mxGeometry>
        </mxCell>
        <mxCell id="0En5r8Swxj0LR9ng2Lpo-107" value="" style="verticalLabelPosition=bottom;sketch=0;html=1;fillColor=#99CCFF;verticalAlign=top;align=center;pointerEvents=1;shape=mxgraph.cisco_safe.design.actuator;strokeColor=#67AB9F;" vertex="1" parent="1">
          <mxGeometry x="652.22" y="73" width="27.78" height="25" as="geometry" />
        </mxCell>
        <mxCell id="0En5r8Swxj0LR9ng2Lpo-108" value="" style="verticalLabelPosition=bottom;sketch=0;html=1;fillColor=#9AC7BF;strokeColor=#ffffff;verticalAlign=top;align=center;points=[[0,0.5,0],[0.125,0.25,0],[0.25,0,0],[0.5,0,0],[0.75,0,0],[0.875,0.25,0],[1,0.5,0],[0.875,0.75,0],[0.75,1,0],[0.5,1,0],[0.125,0.75,0]];pointerEvents=1;shape=mxgraph.cisco_safe.compositeIcon;bgIcon=mxgraph.cisco_safe.design.blank_device;resIcon=mxgraph.cisco_safe.design.automated_system;" vertex="1" parent="1">
          <mxGeometry x="652.22" y="13" width="27.78" height="25" as="geometry" />
        </mxCell>
        <mxCell id="0En5r8Swxj0LR9ng2Lpo-109" value="" style="verticalLabelPosition=bottom;sketch=0;html=1;fillColor=#CDA2BE;strokeColor=#ffffff;verticalAlign=top;align=center;points=[[0,0.5,0],[0.125,0.25,0],[0.25,0,0],[0.5,0,0],[0.75,0,0],[0.875,0.25,0],[1,0.5,0],[0.875,0.75,0],[0.75,1,0],[0.5,1,0],[0.125,0.75,0]];pointerEvents=1;shape=mxgraph.cisco_safe.compositeIcon;bgIcon=mxgraph.cisco_safe.design.blank_device;resIcon=mxgraph.cisco_safe.design.flow_collector_2;" vertex="1" parent="1">
          <mxGeometry x="652.2199999999999" y="43" width="27.78" height="25" as="geometry" />
        </mxCell>
        <mxCell id="0En5r8Swxj0LR9ng2Lpo-110" value="" style="verticalLabelPosition=bottom;sketch=0;html=1;fillColor=#B7C2D4;strokeColor=#ffffff;verticalAlign=top;align=center;points=[[0,0.5,0],[0.125,0.25,0],[0.25,0,0],[0.5,0,0],[0.75,0,0],[0.875,0.25,0],[1,0.5,0],[0.875,0.75,0],[0.75,1,0],[0.5,1,0],[0.125,0.75,0]];pointerEvents=1;shape=mxgraph.cisco_safe.compositeIcon;bgIcon=mxgraph.cisco_safe.design.blank_device;resIcon=mxgraph.cisco_safe.design.radware_2;" vertex="1" parent="1">
          <mxGeometry x="652.21" y="103" width="27.79" height="25" as="geometry" />
        </mxCell>
        <mxCell id="0En5r8Swxj0LR9ng2Lpo-112" value="&lt;font style=&quot;font-size: 11px&quot;&gt;Engineering Data&lt;/font&gt;" style="text;html=1;strokeColor=none;fillColor=none;align=left;verticalAlign=middle;whiteSpace=wrap;rounded=0;fontSize=9;" vertex="1" parent="1">
          <mxGeometry x="690" y="10.5" width="100" height="30" as="geometry" />
        </mxCell>
        <mxCell id="0En5r8Swxj0LR9ng2Lpo-113" value="&lt;font style=&quot;font-size: 11px&quot;&gt;Process Data&lt;/font&gt;" style="text;html=1;strokeColor=none;fillColor=none;align=left;verticalAlign=middle;whiteSpace=wrap;rounded=0;fontSize=9;" vertex="1" parent="1">
          <mxGeometry x="690" y="40.5" width="100" height="30" as="geometry" />
        </mxCell>
        <mxCell id="0En5r8Swxj0LR9ng2Lpo-114" value="&lt;font style=&quot;font-size: 11px&quot;&gt;Manufacturing Data&lt;/font&gt;" style="text;html=1;strokeColor=none;fillColor=none;align=left;verticalAlign=middle;whiteSpace=wrap;rounded=0;fontSize=9;" vertex="1" parent="1">
          <mxGeometry x="690" y="70.5" width="120" height="30" as="geometry" />
        </mxCell>
        <mxCell id="0En5r8Swxj0LR9ng2Lpo-115" value="&lt;font style=&quot;font-size: 11px&quot;&gt;X Data&lt;/font&gt;" style="text;html=1;strokeColor=none;fillColor=none;align=left;verticalAlign=middle;whiteSpace=wrap;rounded=0;fontSize=9;" vertex="1" parent="1">
          <mxGeometry x="690" y="100.5" width="120" height="30" as="geometry" />
        </mxCell>
        <mxCell id="0En5r8Swxj0LR9ng2Lpo-117" value="&lt;font style=&quot;font-size: 13px&quot;&gt;&lt;b&gt;BOM Views&lt;/b&gt;&lt;/font&gt;" style="rounded=1;whiteSpace=wrap;html=1;strokeColor=default;fillColor=none;dashed=1;align=right;verticalAlign=bottom;" vertex="1" parent="1">
          <mxGeometry x="-13.06" y="355" width="702.11" height="100" as="geometry" />
        </mxCell>
        <mxCell id="0En5r8Swxj0LR9ng2Lpo-124" value="Product Structure" style="text;html=1;strokeColor=none;fillColor=none;align=center;verticalAlign=middle;whiteSpace=wrap;rounded=0;fontSize=13;fontStyle=1" vertex="1" parent="1">
          <mxGeometry x="-13.059999999999995" y="85" width="130" height="30" as="geometry" />
        </mxCell>
        <mxCell id="0En5r8Swxj0LR9ng2Lpo-125" value="" style="curved=1;endArrow=classic;html=1;rounded=0;fontSize=13;exitX=0;exitY=0.5;exitDx=0;exitDy=0;entryX=0;entryY=0.5;entryDx=0;entryDy=0;" edge="1" parent="1" source="0En5r8Swxj0LR9ng2Lpo-124" target="0En5r8Swxj0LR9ng2Lpo-117">
          <mxGeometry width="50" height="50" relative="1" as="geometry">
            <mxPoint x="150" y="265" as="sourcePoint" />
            <mxPoint x="200" y="215" as="targetPoint" />
            <Array as="points">
              <mxPoint x="-70" y="145" />
              <mxPoint x="-100" y="235" />
              <mxPoint x="-90" y="315" />
              <mxPoint x="-60" y="365" />
            </Array>
          </mxGeometry>
        </mxCell>
      </root>
    </mxGraphModel>
  </diagram>
</mxfile>
